<?xml version="1.0" encoding="UTF-8"?>
<svg id="a" data-name="Layer 1" xmlns="http://www.w3.org/2000/svg" viewBox="0 0 20 20">
  <g>
    <path d="M14.926,8.902h-1.09c-.084-.289-.197-.566-.34-.825l.77-.77c.163-.163,.163-.428,0-.591l-.991-.99c-.163-.163-.428-.163-.591,0l-.77,.77c-.259-.143-.535-.256-.825-.34v-1.09c0-.231-.187-.418-.418-.418h-1.401c-.231,0-.418,.187-.418,.418v1.09c-.29,.084-.566,.197-.825,.34l-.77-.77c-.163-.163-.428-.163-.591,0l-.99,.99c-.163,.163-.163,.428,0,.591l.77,.77c-.143,.259-.256,.535-.34,.825h-1.09c-.231,0-.418,.187-.418,.418v1.401c0,.231,.187,.418,.418,.418h1.09c.084,.29,.197,.566,.34,.825l-.77,.77c-.163,.163-.163,.428,0,.591l.99,.991c.163,.163,.428,.163,.591,0l.77-.77c.259,.143,.535,.256,.825,.34v1.09c0,.231,.187,.418,.418,.418h1.401c.231,0,.418-.187,.418-.418v-1.09c.29-.084,.566-.197,.825-.34l.77,.77c.163,.163,.428,.163,.591,0l.991-.991c.163-.163,.163-.428,0-.591l-.77-.77c.143-.259,.256-.535,.34-.825h1.09c.231,0,.418-.187,.418-.418v-1.401c0-.231-.187-.418-.418-.418Zm-4.954,3.779c-1.47,0-2.661-1.191-2.661-2.661s1.191-2.661,2.661-2.661,2.661,1.191,2.661,2.661-1.191,2.661-2.661,2.661Z" fill="#231f20"/>
    <g>
      <path d="M11.933,8.934c0-.095-.069-.131-.069-.131-1.678-1.027-1.892-1.044-1.892-1.044,0,0-.214,.017-1.892,1.044,0,0-.069,.036-.069,.131v.632s-.003,.053,.047,.088,.711,.372,.711,.372v-.723l1.203-.61,1.203,.61v.723s.66-.338,.711-.372c.05-.034,.047-.088,.047-.088v-.632Z" fill="#231f20"/>
      <path d="M11.263,10.107c-.089,.045-.088,.106-.088,.106l-.005,.531-1.199,.611-1.199-.611-.005-.531s.002-.061-.088-.106c-.089-.045-.67-.344-.67-.344v1.362s.002,.073,.039,.1c.037,.027,1.157,.74,1.922,1.057,.765-.317,1.885-1.03,1.922-1.057,.037-.027,.039-.1,.039-.1v-1.362s-.581,.299-.67,.344Z" fill="#231f20"/>
      <polygon points="9.972 9.901 8.912 9.387 8.912 10.076 9.972 10.68 11.031 10.076 11.031 9.387 9.972 9.901" fill="#231f20"/>
    </g>
  </g>
  <g>
    <g>
      <path d="M4.523-1.717h0c.585,0,1.059,.475,1.059,1.059V4.837c0,.585-.475,1.059-1.059,1.059h0V-1.717h0Z" transform="translate(2.963 7.142) rotate(-90)" fill="#231f20"/>
      <path d="M2.305,1.56h0V6.342H1.246V2.619c0-.585,.475-1.059,1.059-1.059Z" fill="#231f20"/>
      <path d="M.255,6.413c-.105-.182,.026-.409,.236-.409H1.776s1.285,0,1.285,0c.21,0,.341,.227,.236,.409l-.642,1.113-.642,1.113c-.105,.182-.367,.182-.472,0l-.642-1.113-.642-1.113Z" fill="#231f20"/>
    </g>
    <g>
      <path d="M14.361,14.144h0c.585,0,1.059,.475,1.059,1.059v5.494c0,.585-.475,1.059-1.059,1.059h0v-7.613h0Z" transform="translate(32.842 3.06) rotate(90)" fill="#231f20"/>
      <path d="M18.698,13.698h0v4.782h-1.059v-3.723c0-.585,.475-1.059,1.059-1.059Z" transform="translate(36.336 32.178) rotate(180)" fill="#231f20"/>
      <path d="M19.688,13.627c.105,.182-.026,.409-.236,.409h-1.285s-1.285,0-1.285,0c-.21,0-.341-.227-.236-.409l.642-1.113,.642-1.113c.105-.182,.367-.182,.472,0l.642,1.113,.642,1.113Z" fill="#231f20"/>
    </g>
  </g>
</svg>